<svg width="10" height="8" viewBox="0 0 10 8" fill="none" xmlns="http://www.w3.org/2000/svg">
<path d="M9.63377 0.168281C9.53915 0.101026 9.43173 0.0524095 9.31762 0.0252092C9.20352 -0.00199105 9.08497 -0.00724163 8.96876 0.00975747C8.85256 0.0267566 8.74096 0.065672 8.64035 0.12428C8.53975 0.182888 8.4521 0.26004 8.38243 0.351327L4.13919 5.90487L1.44097 3.82298C1.25493 3.68555 1.02046 3.62387 0.787824 3.65117C0.555186 3.67847 0.342897 3.79258 0.196463 3.96903C0.0500293 4.14548 -0.018895 4.37022 0.00446539 4.5951C0.0278257 4.81997 0.141611 5.02707 0.321431 5.172L3.74739 7.81476C3.84206 7.88617 3.95054 7.93867 4.06649 7.9692C4.18244 7.99973 4.30353 8.00766 4.4227 7.99255C4.54186 7.97744 4.65671 7.93958 4.76053 7.88118C4.86436 7.82279 4.95507 7.74503 5.02738 7.65244L9.82645 1.37569C9.89606 1.28423 9.94629 1.18044 9.97429 1.07024C10.0023 0.960048 10.0075 0.845613 9.98958 0.73348C9.97169 0.621347 9.93105 0.513714 9.87 0.416734C9.80895 0.319753 9.72867 0.235327 9.63377 0.168281Z" fill="white"/>
</svg>
