<svg width="42" height="42" viewBox="0 0 42 42" fill="none" xmlns="http://www.w3.org/2000/svg">
<g filter="url(#filter0_d)">
<circle cx="21" cy="19" r="15" fill="white"/>
</g>
<path d="M25.9001 12.0671C25.1366 11.9382 24.3534 11.9956 23.6167 12.2346C22.8799 12.4735 22.2111 12.887 21.6666 13.4401L21.0007 14.1106L20.3335 13.4401C19.7866 12.8908 19.1176 12.4799 18.3818 12.2413C17.6459 12.0027 16.8641 11.9431 16.1008 12.0675C15.3376 12.192 14.6146 12.4968 13.9916 12.957C13.3685 13.4172 12.8632 14.0195 12.5172 14.7143C12.0588 15.6324 11.8995 16.6721 12.0618 17.6862C12.224 18.7003 12.6996 19.6374 13.4212 20.3649L20.4996 27.785C20.5642 27.8529 20.6419 27.907 20.7279 27.944C20.8139 27.9809 20.9065 28 21 28C21.0936 28 21.1862 27.9809 21.2722 27.944C21.3582 27.907 21.4359 27.8529 21.5005 27.785L28.5692 20.3747C29.205 19.7365 29.653 18.9343 29.8638 18.0566C30.0747 17.1788 30.0401 16.2596 29.7641 15.4003C29.488 14.5411 28.9811 13.7751 28.2993 13.1869C27.6174 12.5988 26.7872 12.2112 25.9001 12.0671V12.0671Z" fill="#EF3F61"/>
<defs>
<filter id="filter0_d" x="0" y="0" width="42" height="42" filterUnits="userSpaceOnUse" color-interpolation-filters="sRGB">
<feFlood flood-opacity="0" result="BackgroundImageFix"/>
<feColorMatrix in="SourceAlpha" type="matrix" values="0 0 0 0 0 0 0 0 0 0 0 0 0 0 0 0 0 0 127 0"/>
<feOffset dy="2"/>
<feGaussianBlur stdDeviation="3"/>
<feColorMatrix type="matrix" values="0 0 0 0 0 0 0 0 0 0 0 0 0 0 0 0 0 0 0.15 0"/>
<feBlend mode="normal" in2="BackgroundImageFix" result="effect1_dropShadow"/>
<feBlend mode="normal" in="SourceGraphic" in2="effect1_dropShadow" result="shape"/>
</filter>
</defs>
</svg>
